# xmcd CD database file
#
# Track frame offsets:
#	150
#	17985
#	40485
#	59262
#	84586
#	125512
#	144755
#	165472
#	217194
#
# Disc length: 3257 seconds
#
# Revision: 0
# Processed by: cddbd v1.5PL3 Copyright (c) Steve Scherf et al.
# Submitted via: CDex 1.51
#
DISCID=7c0cb709
DTITLE=David 'Fathead' Newman  - Song for the New Man
DYEAR=2003
DGENRE=Jazz
TTITLE0=Visa
TTITLE1=Time After Time
TTITLE2=Shakabu
TTITLE3=Song for the New Man
TTITLE4=Passing Through
TTITLE5=Fast Lane
TTITLE6=Lonesome Head
TTITLE7=When I Fall in Love
TTITLE8=This I Dig of You
EXTD=YEAR: 2003
EXTT0=
EXTT1=
EXTT2=
EXTT3=
EXTT4=
EXTT5=
EXTT6=
EXTT7=
EXTT8=
PLAYORDER=
